<?xml version="1.0" encoding="UTF-8"?>
<!-- Created by Vectric (http://www.vectric.com/) -->
<svg width="2.20002103in" height="2.09922204in" viewBox="0 0 2.20002103 2.09922204" id="svg2" version="1.1" xmlns="http://www.w3.org/2000/svg" xmlns:xlink="http://www.w3.org/1999/xlink" xmlns:inkscape="http://www.inkscape.org/namespaces/inkscape">
    <g inkscape:groupmode="layer" id="85667243-1302-4a85-b3ac-c7bf39b332ec" inkscape:label="Toolpath Previews"/>
    <g inkscape:groupmode="layer" id="dcb39c9c-d589-48d4-89ef-439b916414b0" inkscape:label="Layer 1"/>
    <g inkscape:groupmode="layer" id="538e4e4d-975b-4f84-b65d-52eb1fe56e5a" inkscape:label="Autodesk logo in square">
        <path style="fill:none;stroke-width:0.010000;stroke-linecap:round;stroke-linejoin:round;stroke-opacity:1;stroke:#008000;" d="M 0.668284,0.000265 A 0.103463,0.103463 0 0,1 0.756311,0.063419 L 1.610776,2.098966 L 2.200021,2.099222 L 1.341884,0.054928 A 0.089185,0.089185 0 0,0 1.259689,0.000262 L 0.656465,0.000000 A 0.089185,0.089185 0 0,0 0.574292,0.054429 L 0.009614,1.388840 A 0.121616,0.121616 0 0,0 0.014423,1.493684 L 0.304153,2.034277 A 0.121616,0.121616 0 0,0 0.411292,2.098444 L 0.415150,2.098446 A 0.340525,0.340525 0 0,0 0.595566,2.046816 L 1.379624,1.555671 L 0.529733,1.555242 L 0.957513,0.542731 L 0.529037,1.555277 L 0.115972,1.555097 A 0.114738,0.114738 0 0,1 0.014427,1.493682 "/>
    </g>
</svg>
