<?xml version="1.0" encoding="UTF-8"?>
<!-- Created by Vectric (http://www.vectric.com/) -->
<svg width="1.46142522in" height="1.50000000in" viewBox="0 0 1.46142522 1.50000000" id="svg2" version="1.1" xmlns="http://www.w3.org/2000/svg" xmlns:xlink="http://www.w3.org/1999/xlink" xmlns:inkscape="http://www.inkscape.org/namespaces/inkscape">
    <g inkscape:groupmode="layer" id="85667243-1302-4a85-b3ac-c7bf39b332ec" inkscape:label="Toolpath Previews"/>
    <g inkscape:groupmode="layer" id="e4e90523-a3ba-4f82-9eee-e72e68b2d6f7" inkscape:label="Layer 1">
        <path style="fill:none;stroke-width:0.010000;stroke-linecap:round;stroke-linejoin:round;stroke-opacity:1;stroke:#000000;" d="M 0.682000,1.500000 L 0.682000,1.402552 L 0.319466,1.402552 L 0.288707,1.425174 C 0.261984,1.444828 0.257913,1.451220 0.257678,1.473898 L 0.257406,1.500000 L 0.682000,1.500000 "/>
        <path style="fill:none;stroke-width:0.010000;stroke-linecap:round;stroke-linejoin:round;stroke-opacity:1;stroke:#000000;" d="M 1.204042,1.500000 L 1.203770,1.473898 C 1.203535,1.451220 1.199464,1.444828 1.172740,1.425174 L 1.141982,1.402552 L 0.779448,1.402552 L 0.779448,1.500000 L 1.204042,1.500000 "/>
        <path style="fill:none;stroke-width:0.010000;stroke-linecap:round;stroke-linejoin:round;stroke-opacity:1;stroke:#000000;" d="M 0.662793,1.388631 L 0.657807,1.303364 C 0.655065,1.256468 0.650773,1.199304 0.648269,1.176334 L 0.643717,1.134571 L 0.375736,1.130790 L 0.375147,1.134571 L 0.329404,1.381743 L 0.336292,1.388631 L 0.662793,1.388631 "/>
        <path style="fill:none;stroke-width:0.010000;stroke-linecap:round;stroke-linejoin:round;stroke-opacity:1;stroke:#000000;" d="M 1.127476,1.388631 L 1.127476,1.363709 L 1.092446,1.162413 L 1.085447,1.131090 L 0.814251,1.131090 L 0.813397,1.162413 L 0.796356,1.382337 L 0.802650,1.388631 L 1.127476,1.388631 "/>
        <path style="fill:none;stroke-width:0.010000;stroke-linecap:round;stroke-linejoin:round;stroke-opacity:1;stroke:#000000;" d="M 0.306573,1.306964 L 0.302650,1.134571 L 0.027708,1.130796 L 0.027708,1.143502 C 0.027708,1.163212 0.064102,1.215897 0.097413,1.244411 C 0.136766,1.278095 0.193015,1.299042 0.255888,1.303428 L 0.306573,1.306964 "/>
        <path style="fill:none;stroke-width:0.010000;stroke-linecap:round;stroke-linejoin:round;stroke-opacity:1;stroke:#000000;" d="M 1.274786,1.291748 C 1.296468,1.284814 1.325139,1.272385 1.338499,1.264128 C 1.381864,1.237327 1.433740,1.170659 1.433740,1.141730 L 1.433740,1.130796 L 1.158798,1.134571 L 1.154889,1.305104 L 1.195127,1.304730 C 1.217257,1.304524 1.253104,1.298682 1.274786,1.291748 "/>
        <path style="fill:none;stroke-width:0.010000;stroke-linecap:round;stroke-linejoin:round;stroke-opacity:1;stroke:#000000;" d="M 0.303298,1.117169 L 0.271900,0.856148 L 0.271614,0.843968 C 0.271439,0.836522 0.265915,0.831787 0.257406,0.831787 C 0.245172,0.831787 0.243485,0.827146 0.243485,0.793503 C 0.243485,0.755220 0.243485,0.755220 0.278416,0.755220 L 0.313347,0.755220 L 0.309610,0.432300 L 0.255792,0.433718 C 0.181390,0.435678 0.134446,0.454414 0.086393,0.501329 C 0.031241,0.555175 0.004877,0.614775 0.001080,0.694195 C -0.001837,0.755220 -0.001837,0.755220 0.040777,0.755220 C 0.083392,0.755220 0.083392,0.755220 0.083392,0.793503 C 0.083392,0.826086 0.081478,0.831787 0.070539,0.831787 L 0.057685,0.831787 L 0.027590,1.085847 L 0.027708,1.117169 L 0.303298,1.117169 "/>
        <path style="fill:none;stroke-width:0.010000;stroke-linecap:round;stroke-linejoin:round;stroke-opacity:1;stroke:#000000;" d="M 0.640237,1.117169 L 0.640237,0.950116 L 0.410538,0.950116 L 0.410538,1.117169 L 0.640237,1.117169 "/>
        <path style="fill:none;stroke-width:0.010000;stroke-linecap:round;stroke-linejoin:round;stroke-opacity:1;stroke:#000000;" d="M 1.050910,1.117169 L 1.050910,0.950116 L 0.821211,0.950116 L 0.821211,1.117169 L 1.050910,1.117169 "/>
        <path style="fill:none;stroke-width:0.010000;stroke-linecap:round;stroke-linejoin:round;stroke-opacity:1;stroke:#000000;" d="M 1.433740,1.117169 L 1.433858,1.085847 L 1.403763,0.831787 L 1.390909,0.831787 C 1.379970,0.831787 1.378056,0.826086 1.378056,0.793503 C 1.378056,0.755220 1.378056,0.755220 1.420671,0.755220 C 1.463285,0.755220 1.463285,0.755220 1.460320,0.693198 C 1.457727,0.638955 1.454114,0.624619 1.431516,0.578895 C 1.384279,0.483318 1.311449,0.436505 1.205656,0.433718 L 1.151838,0.432300 L 1.148101,0.755220 L 1.183032,0.755220 C 1.217963,0.755220 1.217963,0.755220 1.217963,0.793503 C 1.217963,0.827146 1.216276,0.831787 1.204042,0.831787 C 1.195533,0.831787 1.190009,0.836522 1.189834,0.843968 L 1.189548,0.856148 L 1.158149,1.117169 L 1.433740,1.117169 "/>
        <path style="fill:none;stroke-width:0.010000;stroke-linecap:round;stroke-linejoin:round;stroke-opacity:1;stroke:#000000;" d="M 1.054390,0.929182 L 1.077075,0.915351 C 1.089552,0.907744 1.105985,0.891311 1.113592,0.878834 L 1.127424,0.856148 L 1.127476,0.657773 L 0.942083,0.657773 L 0.930055,0.695928 C 0.897416,0.799471 0.794015,0.861857 0.690888,0.840226 C 0.613602,0.824015 0.555078,0.771068 0.531392,0.695928 L 0.519365,0.657773 L 0.325432,0.657773 L 0.330690,0.849243 L 0.344888,0.873554 C 0.352698,0.886925 0.369561,0.904923 0.382362,0.913549 L 0.405636,0.929234 L 1.054390,0.929182 "/>
        <path style="fill:none;stroke-width:0.010000;stroke-linecap:round;stroke-linejoin:round;stroke-opacity:1;stroke:#000000;" d="M 0.647197,0.776102 L 0.647777,0.619490 L 0.673133,0.697796 C 0.698488,0.776102 0.698488,0.776102 0.728176,0.776102 C 0.757863,0.776102 0.757863,0.776102 0.782332,0.701276 L 0.806801,0.626450 L 0.807045,0.701276 C 0.807290,0.776102 0.807290,0.776102 0.842093,0.776102 L 0.876896,0.776102 L 0.876896,0.497680 L 0.832146,0.497680 C 0.781722,0.497680 0.788725,0.486434 0.750746,0.628404 L 0.735327,0.686042 L 0.725528,0.675174 L 0.671827,0.497680 L 0.584552,0.497680 L 0.584552,0.776102 L 0.647197,0.776102 "/>
        <path style="fill:none;stroke-width:0.010000;stroke-linecap:round;stroke-linejoin:round;stroke-opacity:1;stroke:#000000;" d="M 0.521907,0.636891 L 0.521907,0.619751 C 0.521907,0.610324 0.528197,0.585800 0.535884,0.565254 C 0.543571,0.544708 0.560879,0.515025 0.574346,0.499292 C 0.632290,0.431598 0.740347,0.410645 0.822772,0.451120 C 0.844686,0.461881 0.873635,0.483559 0.887102,0.499292 C 0.912833,0.529353 0.939541,0.590704 0.939541,0.619751 L 0.939541,0.636891 L 1.127476,0.636891 L 1.127424,0.417633 L 1.113592,0.394948 C 1.105985,0.382471 1.089552,0.366038 1.077075,0.358431 L 1.054390,0.344600 L 0.407058,0.344600 L 0.384373,0.358431 C 0.371896,0.366038 0.355463,0.382471 0.347856,0.394948 L 0.334024,0.417633 L 0.333972,0.636891 L 0.521907,0.636891 "/>
        <path style="fill:none;stroke-width:0.010000;stroke-linecap:round;stroke-linejoin:round;stroke-opacity:1;stroke:#000000;" d="M 1.057870,0.323666 L 1.057870,0.300766 C 1.057870,0.288172 1.053069,0.259433 1.047200,0.236902 C 1.023318,0.145213 0.960876,0.070389 0.871292,0.026115 C 0.818679,0.000112 0.818078,0.000000 0.730724,0.000000 C 0.643025,0.000000 0.642976,0.000009 0.588959,0.026706 C 0.480662,0.080229 0.403994,0.192298 0.403660,0.297564 L 0.403578,0.323666 L 1.057870,0.323666 "/>
        <path style="fill:none;stroke-width:0.010000;stroke-linecap:round;stroke-linejoin:round;stroke-opacity:1;stroke:#000000;" d="M 0.508277,0.256348 C 0.527704,0.273706 0.534818,0.275977 0.559427,0.272676 C 0.615208,0.265194 0.637966,0.207641 0.602030,0.164933 C 0.581245,0.140231 0.554137,0.133711 0.524209,0.146215 C 0.479298,0.164981 0.470911,0.222961 0.508277,0.256348 "/>
        <path style="fill:none;stroke-width:0.010000;stroke-linecap:round;stroke-linejoin:round;stroke-opacity:1;stroke:#000000;" d="M 0.862439,0.254596 C 0.877502,0.269659 0.889389,0.274942 0.908218,0.274942 C 0.943544,0.274942 0.974343,0.244179 0.974343,0.208895 C 0.974343,0.174351 0.963782,0.157306 0.934903,0.145240 C 0.865505,0.116243 0.809143,0.201300 0.862439,0.254596 "/>
    </g>
</svg>
