<?xml version="1.0" encoding="UTF-8"?>
<!-- Created by Vectric (http://www.vectric.com/) -->
<svg width="2.30000000in" height="2.31026030in" viewBox="0 0 2.30000000 2.31026030" id="svg2" version="1.1" xmlns="http://www.w3.org/2000/svg" xmlns:xlink="http://www.w3.org/1999/xlink" xmlns:inkscape="http://www.inkscape.org/namespaces/inkscape">
    <g inkscape:groupmode="layer" id="85667243-1302-4a85-b3ac-c7bf39b332ec" inkscape:label="Toolpath Previews"/>
    <g inkscape:groupmode="layer" id="dcb39c9c-d589-48d4-89ef-439b916414b0" inkscape:label="Layer 1"/>
    <g inkscape:groupmode="layer" id="c80e1481-9890-4412-ae4f-700e822ef8a5" inkscape:label="Import - logo-tinkercad">
        <path style="fill:none;stroke-width:0.010000;stroke-linecap:round;stroke-linejoin:round;stroke-opacity:1;stroke:#000000;" d="M 0.000000,0.699003 L 0.698911,0.699003 L 0.698911,0.000000 L 0.000000,0.000000 L 0.000000,0.699003 "/>
        <path style="fill:none;stroke-width:0.010000;stroke-linecap:round;stroke-linejoin:round;stroke-opacity:1;stroke:#000000;" d="M 0.788997,0.699003 L 1.510958,0.699003 L 1.510958,0.000000 L 0.788997,0.000000 L 0.788997,0.699003 "/>
        <path style="fill:none;stroke-width:0.010000;stroke-linecap:round;stroke-linejoin:round;stroke-opacity:1;stroke:#000000;" d="M 1.600997,0.699003 L 2.300000,0.699003 L 2.300000,0.000000 L 1.600997,0.000000 L 1.600997,0.699003 "/>
        <path style="fill:none;stroke-width:0.010000;stroke-linecap:round;stroke-linejoin:round;stroke-opacity:1;stroke:#000000;" d="M 0.000000,1.518381 L 0.698911,1.518381 L 0.698911,0.796471 L 0.000000,0.796471 L 0.000000,1.518381 "/>
        <path style="fill:none;stroke-width:0.010000;stroke-linecap:round;stroke-linejoin:round;stroke-opacity:1;stroke:#000000;" d="M 0.789001,1.518381 L 1.510962,1.518381 L 1.510962,0.796471 L 0.789001,0.796471 L 0.789001,1.518381 "/>
        <path style="fill:none;stroke-width:0.010000;stroke-linecap:round;stroke-linejoin:round;stroke-opacity:1;stroke:#000000;" d="M 1.600997,1.518381 L 2.300000,1.518381 L 2.300000,0.796471 L 1.600997,0.796471 L 1.600997,1.518381 "/>
        <path style="fill:none;stroke-width:0.010000;stroke-linecap:round;stroke-linejoin:round;stroke-opacity:1;stroke:#000000;" d="M 0.000000,2.310260 L 0.698911,2.310260 L 0.698911,1.611211 L 0.000000,1.611211 L 0.000000,2.310260 "/>
        <path style="fill:none;stroke-width:0.010000;stroke-linecap:round;stroke-linejoin:round;stroke-opacity:1;stroke:#000000;" d="M 0.788997,2.310260 L 1.510958,2.310260 L 1.510958,1.611211 L 0.788997,1.611211 L 0.788997,2.310260 "/>
        <path style="fill:none;stroke-width:0.010000;stroke-linecap:round;stroke-linejoin:round;stroke-opacity:1;stroke:#000000;" d="M 1.600997,2.310260 L 2.300000,2.310260 L 2.300000,1.611211 L 1.600997,1.611211 L 1.600997,2.310260 "/>
        <path style="fill:none;stroke-width:0.010000;stroke-linecap:round;stroke-linejoin:round;stroke-opacity:1;stroke:#000000;" d="M 0.298470,0.577225 L 0.417825,0.577225 L 0.417825,0.223750 L 0.550952,0.223750 L 0.550952,0.122758 L 0.160753,0.122758 L 0.160753,0.223750 L 0.298470,0.223750 L 0.298470,0.577225 "/>
        <path style="fill:none;stroke-width:0.010000;stroke-linecap:round;stroke-linejoin:round;stroke-opacity:1;stroke:#000000;" d="M 1.092641,0.577224 L 1.211996,0.577224 L 1.211996,0.122757 L 1.092641,0.122757 L 1.092641,0.577224 "/>
        <path style="fill:none;stroke-width:0.010000;stroke-linecap:round;stroke-linejoin:round;stroke-opacity:1;stroke:#000000;" d="M 1.854677,0.267767 L 1.994107,0.577227 L 2.153065,0.577227 L 2.153065,0.122760 L 2.042891,0.122760 L 2.042891,0.435153 L 1.904903,0.122760 L 1.744503,0.122760 L 1.744503,0.577227 L 1.854677,0.577227 L 1.854677,0.267767 "/>
        <path style="fill:none;stroke-width:0.010000;stroke-linecap:round;stroke-linejoin:round;stroke-opacity:1;stroke:#000000;" d="M 0.557120,0.926109 L 0.412888,0.926109 L 0.275520,1.092816 L 0.275520,0.926109 L 0.156165,0.926109 L 0.156165,1.380577 L 0.275520,1.380577 L 0.275520,1.196490 L 0.421858,1.380577 L 0.571865,1.380577 L 0.365009,1.139668 L 0.557120,0.926109 "/>
        <path style="fill:none;stroke-width:0.010000;stroke-linecap:round;stroke-linejoin:round;stroke-opacity:1;stroke:#000000;" d="M 1.294626,1.293356 L 1.101822,1.293356 L 1.101822,1.192363 L 1.280855,1.192363 L 1.280855,1.105142 L 1.101822,1.105142 L 1.101822,1.017921 L 1.285445,1.017921 L 1.285445,0.926109 L 0.982467,0.926109 L 0.982467,1.380577 L 1.294626,1.380577 L 1.294626,1.293356 "/>
        <path style="fill:none;stroke-width:0.010000;stroke-linecap:round;stroke-linejoin:round;stroke-opacity:1;stroke:#000000;" d="M 1.987826,1.060333 C 1.987826,1.105229 1.945170,1.114323 1.909391,1.114323 L 1.877629,1.114323 L 1.877629,1.013330 L 1.911985,1.013330 C 1.966562,1.013330 1.987826,1.026271 1.987826,1.060333 "/>
        <path style="fill:none;stroke-width:0.010000;stroke-linecap:round;stroke-linejoin:round;stroke-opacity:1;stroke:#000000;" d="M 2.106970,1.051211 C 2.106970,0.973094 2.045934,0.926109 1.943706,0.926109 L 1.762865,0.926109 L 1.762865,1.380576 L 1.877629,1.380576 L 1.877629,1.201544 L 1.901697,1.201544 C 1.941144,1.201544 1.949563,1.213833 1.968394,1.264535 L 2.009916,1.380576 L 2.138241,1.380576 L 2.077048,1.225998 C 2.064213,1.194415 2.051970,1.172664 2.031202,1.159154 C 2.079789,1.140218 2.106970,1.102079 2.106970,1.051211 "/>
        <path style="fill:none;stroke-width:0.010000;stroke-linecap:round;stroke-linejoin:round;stroke-opacity:1;stroke:#000000;" d="M 0.485502,2.080780 C 0.460175,2.092086 0.430690,2.097815 0.397863,2.097815 C 0.312014,2.097815 0.260761,2.045166 0.260761,1.956976 C 0.260761,1.872620 0.316655,1.815949 0.399846,1.815949 C 0.428064,1.815949 0.459721,1.822128 0.484533,1.832480 L 0.499535,1.838736 L 0.504768,1.741710 L 0.496083,1.739135 C 0.462255,1.729118 0.420701,1.723141 0.384931,1.723141 C 0.241678,1.723141 0.137705,1.821485 0.137705,1.956976 C 0.137705,2.028956 0.161765,2.088809 0.207280,2.130064 C 0.250950,2.169649 0.312382,2.190577 0.384931,2.190577 C 0.426848,2.190577 0.467103,2.183880 0.498273,2.171714 L 0.506022,2.168685 L 0.500706,2.073995 L 0.485502,2.080780 "/>
        <path style="fill:none;stroke-width:0.010000;stroke-linecap:round;stroke-linejoin:round;stroke-opacity:1;stroke:#000000;" d="M 1.206655,1.986533 L 1.095398,1.986533 L 1.151807,1.834452 L 1.206655,1.986533 "/>
        <path style="fill:none;stroke-width:0.010000;stroke-linecap:round;stroke-linejoin:round;stroke-opacity:1;stroke:#000000;" d="M 1.082742,1.729461 L 0.909893,2.183928 L 1.028922,2.183928 L 1.067717,2.073754 L 1.234933,2.073754 L 1.273067,2.183928 L 1.397357,2.183928 L 1.223815,1.729461 L 1.082742,1.729461 "/>
        <path style="fill:none;stroke-width:0.010000;stroke-linecap:round;stroke-linejoin:round;stroke-opacity:1;stroke:#000000;" d="M 2.028710,1.950604 C 2.028710,2.044872 1.979733,2.096708 1.887077,2.096708 L 1.868448,2.096708 L 1.868448,1.816683 L 1.898025,1.816683 C 1.982299,1.816683 2.028710,1.865536 2.028710,1.950604 "/>
        <path style="fill:none;stroke-width:0.010000;stroke-linecap:round;stroke-linejoin:round;stroke-opacity:1;stroke:#000000;" d="M 1.912279,1.729462 L 1.749093,1.729462 L 1.749093,2.183929 L 1.900669,2.183929 C 2.057869,2.183929 2.151719,2.096488 2.151719,1.950508 C 2.151719,1.808154 2.066683,1.729462 1.912279,1.729462 "/>
    </g>
</svg>
